<?xml version="1.0" encoding="UTF-8" standalone="no"?>
<!-- Created with Inkscape (http://www.inkscape.org/) -->

<svg
   width="401.84915mm"
   height="182.08624mm"
   viewBox="0 0 401.84915 182.08624"
   version="1.1"
   id="svg1"
   xml:space="preserve"
   xmlns:inkscape="http://www.inkscape.org/namespaces/inkscape"
   xmlns:sodipodi="http://sodipodi.sourceforge.net/DTD/sodipodi-0.dtd"
   xmlns="http://www.w3.org/2000/svg"
   xmlns:svg="http://www.w3.org/2000/svg"><sodipodi:namedview
     id="namedview1"
     pagecolor="#ffffff"
     bordercolor="#000000"
     borderopacity="0.25"
     inkscape:showpageshadow="2"
     inkscape:pageopacity="0.0"
     inkscape:pagecheckerboard="0"
     inkscape:deskcolor="#d1d1d1"
     inkscape:document-units="mm"
     inkscape:export-bgcolor="#00000000" /><defs
     id="defs1"><style
       id="style1">
      .cls-1 {
        fill: #f2c12e;
      }

      .cls-1, .cls-2, .cls-3 {
        stroke-width: 0px;
      }

      .cls-2 {
        fill: #bf7f30;
      }

      .cls-3 {
        fill: #224459;
      }
    </style></defs><g
     inkscape:label="Layer 1"
     inkscape:groupmode="layer"
     id="layer1"
     transform="translate(95.924578,-57.611765)"><g
       id="g1"
       transform="matrix(0.26458333,0,0,0.26458333,-95.924581,57.611767)"
       inkscape:label="g1"><g
         id="g2"
         inkscape:export-filename="riftrock inverted logo.svg"
         inkscape:export-xdpi="96"
         inkscape:export-ydpi="96"><polygon
           class="cls-1"
           points="140.7,66.7 338.1,66.7 412.2,149.8 412.2,296.7 313.3,380.3 507.2,621.4 558.7,579 406.1,389.3 478.9,327.6 478.9,124.3 368.1,0 110.8,0 0,124.3 0,528 66.7,528 66.7,149.8 "
           id="polygon1"
           style="fill:#bf7f30;fill-opacity:1" /><path
           class="cls-2"
           d="m 99.4,528.1 57.5,0.3 V 188.7 c 0,0 23,-25.8 23,-25.8 h 119.4 c 0,0 25.1,26.8 25.1,26.8 v 62.9 c 0,0 -78,64.4 -78,64.4 -36,29.8 -41.5,82.9 -12.3,119.4 L 435.9,688.2 478.4,653.3 276.9,401.9 c -10.3,-12.9 -8.4,-31.7 4.3,-42.3 l 98.2,-81.1 V 168 c 0,0 -56.2,-60.1 -56.2,-60.1 H 155.3 c 0,0 -53.2,59.7 -53.2,59.7 l -2.6,360.5 z"
           id="path1"
           style="fill:#f2c12e;fill-opacity:1" /><path
           class="cls-1"
           d="m 210.6,202.8 -11.4,12.7 v 68.1 c 0,11.7 13.5,18.2 22.7,11 l 60.2,-47.5 V 216 c 0,0 -12.4,-13.3 -12.4,-13.3 h -59.1 z"
           id="path2"
           style="fill:#bf7f30;fill-opacity:1" /></g><g
         id="g25"><g
           id="g10"><path
             class="cls-3"
             d="M 641.8,130.8 H 684 c 16.4,0 26.1,8.1 26.1,22.5 0,14.4 -5.4,16.8 -14.2,19.9 8.1,1.5 11.2,6.4 11.4,14.9 0.5,11.4 2.2,18.7 4.8,25.1 h -17.9 c -2.1,-5.1 -3.3,-11.4 -3.5,-24.9 -0.1,-6.6 -2.8,-9.3 -9.1,-9.3 h -22.8 v 34.2 h -17.1 v -82.3 z m 17.1,12.3 v 24.4 h 22 c 7.8,0 12.5,-4.1 12.5,-12.1 0,-8 -4.7,-12.2 -12.4,-12.2 h -22.1 z"
             id="path3"
             style="fill:#ffffff;fill-opacity:1" /><path
             class="cls-3"
             d="m 723.2,128.1 h 17.1 v 14 h -17.1 z m 0.3,24.6 h 16.4 v 60.5 h -16.4 z"
             id="path4"
             style="fill:#ffffff;fill-opacity:1" /><path
             class="cls-3"
             d="M 763,163.1 H 748.9 V 152.7 H 763 v -9.8 c 0,-9.9 4.9,-15.1 15.8,-15.1 h 16.9 v 9.9 h -11.2 c -3.6,0 -5.2,1.5 -5.2,5.1 v 9.9 h 16.4 v 10.4 h -16.4 v 50.1 h -16.4 v -50.1 z"
             id="path5"
             style="fill:#ffffff;fill-opacity:1" /><path
             class="cls-3"
             d="M 816.4,199.2 V 163.1 H 802 v -10.4 h 14.4 v -14.1 h 16.2 v 14.1 H 850 v 10.4 h -17.4 v 33.8 c 0,4 1.9,5.6 6,5.6 H 850 v 10.7 h -18.8 c -10,0 -14.8,-4.9 -14.8,-14 z"
             id="path6"
             style="fill:#ffffff;fill-opacity:1" /><path
             class="cls-3"
             d="m 860.4,130.8 h 42.2 c 16.4,0 26.1,8.1 26.1,22.5 0,14.4 -5.4,16.8 -14.2,19.9 8.1,1.5 11.2,6.4 11.4,14.9 0.5,11.4 2.2,18.7 4.8,25.1 h -17.9 c -2.1,-5.1 -3.3,-11.4 -3.5,-24.9 -0.1,-6.6 -2.8,-9.3 -9.1,-9.3 h -22.8 v 34.2 h -17.1 v -82.3 z m 17.1,12.3 v 24.4 h 22 c 7.8,0 12.5,-4.1 12.5,-12.1 0,-8 -4.7,-12.2 -12.4,-12.2 h -22.1 z"
             id="path7"
             style="fill:#ffffff;fill-opacity:1" /><path
             class="cls-3"
             d="m 938.1,182.9 c 0,-20 11.9,-31.6 30.2,-31.6 18.3,0 30.2,11.6 30.2,31.6 0,20 -12,31.5 -30.2,31.5 -18.2,0 -30.2,-11.8 -30.2,-31.5 z m 16,0 c 0,13.3 5.3,20.3 14.2,20.3 8.9,0 14.2,-7.1 14.2,-20.3 0,-13.2 -5.3,-20.5 -14.2,-20.5 -8.9,0 -14.2,7.1 -14.2,20.5 z"
             id="path8"
             style="fill:#ffffff;fill-opacity:1" /><path
             class="cls-3"
             d="m 1007,182.9 c 0,-20 12,-31.6 29.9,-31.6 17.9,0 26.5,8.7 28.6,24.7 h -15.2 c -1.5,-8.9 -6.4,-13.5 -13.2,-13.5 -6.8,0 -14.2,6.9 -14.2,20.3 0,13.4 5.5,20.5 14.2,20.5 8.7,0 12.2,-5.2 13.5,-14.9 h 14.9 c -1.6,16.7 -12.9,26.1 -28.7,26.1 -15.8,0 -29.9,-11.8 -29.9,-31.5 z"
             id="path9"
             style="fill:#ffffff;fill-opacity:1" /><path
             class="cls-3"
             d="m 1076.6,129.4 h 16.1 l -0.4,52.9 23.8,-29.6 h 16.1 l -20,24.5 21.8,36 h -17.9 l -14.3,-24.7 -9.3,10.9 0.2,13.8 h -16.1 v -83.7 z"
             id="path10"
             style="fill:#ffffff;fill-opacity:1" /></g><g
           id="g16"><path
             class="cls-3"
             d="m 641.8,254.1 h 24.6 l 9.4,30 9.2,30.8 9.2,-30.8 9.3,-30 h 24.6 v 82.3 h -15.3 v -41.2 l 0.2,-27.4 -8.2,27.4 -13.1,41.2 h -14 l -13.1,-41.2 -8.4,-27.8 0.4,27.8 v 41.2 h -14.8 z"
             id="path11"
             style="fill:#ffffff;fill-opacity:1" /><path
             class="cls-3"
             d="m 743.5,251.3 h 17.1 v 14 h -17.1 z m 0.3,24.6 h 16.4 v 60.5 h -16.4 z"
             id="path12"
             style="fill:#ffffff;fill-opacity:1" /><path
             class="cls-3"
             d="m 774.7,275.9 h 16.4 v 9.2 c 4,-6.5 10.5,-10.5 18.8,-10.5 12.2,0 20.1,8.1 20.1,19.4 v 42.3 h -16.4 v -39.2 c 0,-7.4 -4.4,-11.2 -11.1,-11.2 -6.7,0 -9.2,2.6 -11.5,6.5 v 43.9 h -16.4 v -60.5 z"
             id="path13"
             style="fill:#ffffff;fill-opacity:1" /><path
             class="cls-3"
             d="m 843.7,251.3 h 17.1 v 14 h -17.1 z m 0.4,24.6 h 16.4 v 60.5 h -16.4 z"
             id="path14"
             style="fill:#ffffff;fill-opacity:1" /><path
             class="cls-3"
             d="m 874.9,275.9 h 16.4 v 9.2 c 4,-6.5 10.5,-10.5 18.8,-10.5 12.2,0 20.1,8.1 20.1,19.4 v 42.3 h -16.4 v -39.2 c 0,-7.4 -4.4,-11.2 -11.1,-11.2 -6.7,0 -9.2,2.6 -11.5,6.5 v 43.9 h -16.4 v -60.5 z"
             id="path15"
             style="fill:#ffffff;fill-opacity:1" /><path
             class="cls-3"
             d="m 943.5,342.7 h 16 c 1.5,5.6 6.5,8.4 12.8,8.4 6.3,0 13.8,-4.6 13.8,-13.8 v -12.7 c -4,7.6 -10.6,11.8 -19.3,11.8 -15.3,0 -25.4,-11.2 -25.4,-30.7 0,-19.5 10.2,-30.9 25.4,-30.9 15.2,0 15.3,4 19.3,11.5 v -10.4 h 16.2 v 59 c 0,17.1 -11.6,25.6 -29.4,25.6 -17.8,0 -26.5,-6.2 -29.4,-17.9 z m 14,-37.1 c 0,13.2 5.5,19.8 14.4,19.8 8.9,0 14.2,-6.7 14.2,-19.8 0,-13.1 -5.5,-19.8 -14.2,-19.8 -8.7,0 -14.4,6.6 -14.4,19.8 z"
             id="path16"
             style="fill:#ffffff;fill-opacity:1" /></g><g
           id="g24"><path
             class="cls-3"
             d="m 1039,309.7 h 16.2 c 2.5,12.1 9.2,16.8 20.2,16.8 11,0 15.2,-4.2 15.2,-11.5 0,-7.3 -9.8,-10.7 -20.7,-13.5 -14.1,-3.6 -30.1,-7.6 -30.1,-24.5 0,-16.9 11.6,-24 30.6,-24 19,0 33.5,10.1 36.7,27.9 h -16 c -2.4,-11.1 -9.6,-16.3 -20.2,-16.3 -10.6,0 -14.1,4 -14.1,10.6 0,6.6 9.4,10.2 20,13.1 14.2,3.8 30.7,7.9 30.7,24.8 0,16.9 -12.4,24.9 -31.8,24.9 -19.4,0 -33.8,-9.4 -36.7,-28.2 z"
             id="path17"
             style="fill:#ffffff;fill-opacity:1" /><path
             class="cls-3"
             d="m 1116.2,306.3 c 0,-19.9 12.4,-31.5 30,-31.5 17.6,0 29.1,11.1 29.1,30.8 v 2.4 h -43.2 c 0.5,12.8 5.9,19.4 14.1,19.4 8.2,0 11.3,-4 12.9,-12 h 15.3 c -2.8,14.2 -13.5,22.6 -28.5,22.6 -15,0 -29.8,-11.9 -29.8,-31.6 z m 16.4,-6.3 h 27.2 c -1.4,-9.8 -6.4,-14.6 -13.6,-14.6 -7.2,0 -12.1,4.9 -13.5,14.6 z"
             id="path18"
             style="fill:#ffffff;fill-opacity:1" /><path
             class="cls-3"
             d="m 1186.6,276.2 h 16.4 v 13.5 c 3.9,-9.8 10.8,-15.2 20.5,-15.2 h 1.3 v 14.8 c -1.6,-0.4 -3.2,-0.5 -4.8,-0.5 -7.3,0 -13.9,3.3 -16.9,10 v 37.8 h -16.4 v -60.5 z"
             id="path19"
             style="fill:#ffffff;fill-opacity:1" /><path
             class="cls-3"
             d="m 1230.5,276.2 h 16.8 l 7.9,22.6 7.9,22.8 7.9,-22.8 7.9,-22.6 h 16.1 l -22.9,60.5 h -18.7 l -22.8,-60.5 z"
             id="path20"
             style="fill:#ffffff;fill-opacity:1" /><path
             class="cls-3"
             d="m 1303,251.6 h 17.1 v 14 H 1303 Z m 0.4,24.6 h 16.4 v 60.5 h -16.4 z"
             id="path21"
             style="fill:#ffffff;fill-opacity:1" /><path
             class="cls-3"
             d="m 1331,306.5 c 0,-20 12,-31.6 29.9,-31.6 17.9,0 26.5,8.7 28.6,24.7 h -15.2 c -1.5,-8.9 -6.4,-13.5 -13.2,-13.5 -6.8,0 -14.2,6.9 -14.2,20.3 0,13.4 5.5,20.5 14.2,20.5 8.7,0 12.2,-5.2 13.5,-14.9 h 14.9 c -1.6,16.7 -12.9,26.1 -28.7,26.1 -15.8,0 -29.9,-11.8 -29.9,-31.5 z"
             id="path22"
             style="fill:#ffffff;fill-opacity:1" /><path
             class="cls-3"
             d="m 1397.8,306.3 c 0,-19.9 12.4,-31.5 30,-31.5 17.6,0 29.1,11.1 29.1,30.8 v 2.4 h -43.2 c 0.5,12.8 5.9,19.4 14.1,19.4 8.2,0 11.3,-4 12.9,-12 h 15.3 c -2.8,14.2 -13.5,22.6 -28.5,22.6 -15,0 -29.8,-11.9 -29.8,-31.6 z m 16.3,-6.3 h 27.2 c -1.4,-9.8 -6.4,-14.6 -13.6,-14.6 -7.2,0 -12.1,4.9 -13.5,14.6 z"
             id="path23"
             style="fill:#ffffff;fill-opacity:1" /><path
             class="cls-3"
             d="m 1464.7,317 h 14.7 c 1.8,7.8 6.5,11.2 13.5,11.2 7,0 10.6,-3.1 10.6,-7.2 0,-6.1 -7.4,-7.8 -15.6,-9.8 -10.6,-2.5 -22.5,-5.5 -22.5,-18.5 0,-13 9.5,-18 24.6,-18 15.1,0 24.8,7.4 27.8,20 h -14.6 c -2,-6.8 -6.4,-10.1 -13.1,-10.1 -6.7,0 -9.4,2.7 -9.4,6.6 0,3.9 7.2,7.1 15.3,9.1 10.6,2.5 22.8,5.8 22.8,19.1 0,13.3 -10.4,18.6 -25.6,18.6 -15.2,0 -25.6,-6.8 -28.5,-20.9 z"
             id="path24"
             style="fill:#ffffff;fill-opacity:1" /></g></g></g></g></svg>
