<?xml version="1.0" encoding="UTF-8"?>
<svg id="Layer_1" data-name="Layer 1" xmlns="http://www.w3.org/2000/svg" version="1.1" viewBox="0 0 1518.8 688.2">
  <defs>
    <style>
      .cls-1 {
        fill: #f2c12e;
      }

      .cls-1, .cls-2, .cls-3 {
        stroke-width: 0px;
      }

      .cls-2 {
        fill: #bf7f30;
      }

      .cls-3 {
        fill: #224459;
      }
    </style>
  </defs>
  <g>
    <polygon class="cls-1" points="0 124.3 0 528 66.7 528 66.7 149.8 140.7 66.7 338.1 66.7 412.2 149.8 412.2 296.7 313.3 380.3 507.2 621.4 558.7 579 406.1 389.3 478.9 327.6 478.9 124.3 368.1 0 110.8 0 0 124.3"/>
    <path class="cls-2" d="M99.4,528.1l57.5.3V188.7s23-25.8,23-25.8h119.4s25.1,26.8,25.1,26.8v62.9s-78,64.4-78,64.4c-36,29.8-41.5,82.9-12.3,119.4l201.8,251.8,42.5-34.9-201.5-251.4c-10.3-12.9-8.4-31.7,4.3-42.3l98.2-81.1v-110.5s-56.2-60.1-56.2-60.1h-167.9s-53.2,59.7-53.2,59.7l-2.6,360.5Z"/>
    <path class="cls-1" d="M210.6,202.8l-11.4,12.7v68.1c0,11.7,13.5,18.2,22.7,11l60.2-47.5v-31.1s-12.4-13.3-12.4-13.3h-59.1Z"/>
  </g>
  <g>
    <g>
      <path class="cls-3" d="M641.8,130.8h42.2c16.4,0,26.1,8.1,26.1,22.5s-5.4,16.8-14.2,19.9c8.1,1.5,11.2,6.4,11.4,14.9.5,11.4,2.2,18.7,4.8,25.1h-17.9c-2.1-5.1-3.3-11.4-3.5-24.9-.1-6.6-2.8-9.3-9.1-9.3h-22.8v34.2h-17.1v-82.3ZM658.9,143.1v24.4h22c7.8,0,12.5-4.1,12.5-12.1s-4.7-12.2-12.4-12.2h-22.1Z"/>
      <path class="cls-3" d="M723.2,128.1h17.1v14h-17.1v-14ZM723.5,152.7h16.4v60.5h-16.4v-60.5Z"/>
      <path class="cls-3" d="M763,163.1h-14.1v-10.4h14.1v-9.8c0-9.9,4.9-15.1,15.8-15.1h16.9v9.9h-11.2c-3.6,0-5.2,1.5-5.2,5.1v9.9h16.4v10.4h-16.4v50.1h-16.4v-50.1Z"/>
      <path class="cls-3" d="M816.4,199.2v-36.1h-14.4v-10.4h14.4v-14.1h16.2v14.1h17.4v10.4h-17.4v33.8c0,4,1.9,5.6,6,5.6h11.4v10.7h-18.8c-10,0-14.8-4.9-14.8-14Z"/>
      <path class="cls-3" d="M860.4,130.8h42.2c16.4,0,26.1,8.1,26.1,22.5s-5.4,16.8-14.2,19.9c8.1,1.5,11.2,6.4,11.4,14.9.5,11.4,2.2,18.7,4.8,25.1h-17.9c-2.1-5.1-3.3-11.4-3.5-24.9-.1-6.6-2.8-9.3-9.1-9.3h-22.8v34.2h-17.1v-82.3ZM877.5,143.1v24.4h22c7.8,0,12.5-4.1,12.5-12.1s-4.7-12.2-12.4-12.2h-22.1Z"/>
      <path class="cls-3" d="M938.1,182.9c0-20,11.9-31.6,30.2-31.6s30.2,11.6,30.2,31.6-12,31.5-30.2,31.5-30.2-11.8-30.2-31.5ZM954.1,182.9c0,13.3,5.3,20.3,14.2,20.3s14.2-7.1,14.2-20.3-5.3-20.5-14.2-20.5-14.2,7.1-14.2,20.5Z"/>
      <path class="cls-3" d="M1007,182.9c0-20,12-31.6,29.9-31.6s26.5,8.7,28.6,24.7h-15.2c-1.5-8.9-6.4-13.5-13.2-13.5s-14.2,6.9-14.2,20.3,5.5,20.5,14.2,20.5,12.2-5.2,13.5-14.9h14.9c-1.6,16.7-12.9,26.1-28.7,26.1s-29.9-11.8-29.9-31.5Z"/>
      <path class="cls-3" d="M1076.6,129.4h16.1l-.4,52.9,23.8-29.6h16.1l-20,24.5,21.8,36h-17.9l-14.3-24.7-9.3,10.9.2,13.8h-16.1v-83.7Z"/>
    </g>
    <g>
      <path class="cls-3" d="M641.8,254.1h24.6l9.4,30,9.2,30.8,9.2-30.8,9.3-30h24.6v82.3h-15.3v-41.2l.2-27.4-8.2,27.4-13.1,41.2h-14l-13.1-41.2-8.4-27.8.4,27.8v41.2h-14.8v-82.3Z"/>
      <path class="cls-3" d="M743.5,251.3h17.1v14h-17.1v-14ZM743.8,275.9h16.4v60.5h-16.4v-60.5Z"/>
      <path class="cls-3" d="M774.7,275.9h16.4v9.2c4-6.5,10.5-10.5,18.8-10.5,12.2,0,20.1,8.1,20.1,19.4v42.3h-16.4v-39.2c0-7.4-4.4-11.2-11.1-11.2s-9.2,2.6-11.5,6.5v43.9h-16.4v-60.5Z"/>
      <path class="cls-3" d="M843.7,251.3h17.1v14h-17.1v-14ZM844.1,275.9h16.4v60.5h-16.4v-60.5Z"/>
      <path class="cls-3" d="M874.9,275.9h16.4v9.2c4-6.5,10.5-10.5,18.8-10.5,12.2,0,20.1,8.1,20.1,19.4v42.3h-16.4v-39.2c0-7.4-4.4-11.2-11.1-11.2s-9.2,2.6-11.5,6.5v43.9h-16.4v-60.5Z"/>
      <path class="cls-3" d="M943.5,342.7h16c1.5,5.6,6.5,8.4,12.8,8.4s13.8-4.6,13.8-13.8v-12.7c-4,7.6-10.6,11.8-19.3,11.8-15.3,0-25.4-11.2-25.4-30.7s10.2-30.9,25.4-30.9,15.3,4,19.3,11.5v-10.4h16.2v59c0,17.1-11.6,25.6-29.4,25.6s-26.5-6.2-29.4-17.9ZM957.5,305.6c0,13.2,5.5,19.8,14.4,19.8s14.2-6.7,14.2-19.8-5.5-19.8-14.2-19.8-14.4,6.6-14.4,19.8Z"/>
    </g>
    <g>
      <path class="cls-3" d="M1039,309.7h16.2c2.5,12.1,9.2,16.8,20.2,16.8s15.2-4.2,15.2-11.5-9.8-10.7-20.7-13.5c-14.1-3.6-30.1-7.6-30.1-24.5s11.6-24,30.6-24,33.5,10.1,36.7,27.9h-16c-2.4-11.1-9.6-16.3-20.2-16.3s-14.1,4-14.1,10.6,9.4,10.2,20,13.1c14.2,3.8,30.7,7.9,30.7,24.8s-12.4,24.9-31.8,24.9-33.8-9.4-36.7-28.2Z"/>
      <path class="cls-3" d="M1116.2,306.3c0-19.9,12.4-31.5,30-31.5s29.1,11.1,29.1,30.8v2.4h-43.2c.5,12.8,5.9,19.4,14.1,19.4s11.3-4,12.9-12h15.3c-2.8,14.2-13.5,22.6-28.5,22.6s-29.8-11.9-29.8-31.6ZM1132.6,300h27.2c-1.4-9.8-6.4-14.6-13.6-14.6s-12.1,4.9-13.5,14.6Z"/>
      <path class="cls-3" d="M1186.6,276.2h16.4v13.5c3.9-9.8,10.8-15.2,20.5-15.2h1.3v14.8c-1.6-.4-3.2-.5-4.8-.5-7.3,0-13.9,3.3-16.9,10v37.8h-16.4v-60.5Z"/>
      <path class="cls-3" d="M1230.5,276.2h16.8l7.9,22.6,7.9,22.8,7.9-22.8,7.9-22.6h16.1l-22.9,60.5h-18.7l-22.8-60.5Z"/>
      <path class="cls-3" d="M1303,251.6h17.1v14h-17.1v-14ZM1303.4,276.2h16.4v60.5h-16.4v-60.5Z"/>
      <path class="cls-3" d="M1331,306.5c0-20,12-31.6,29.9-31.6s26.5,8.7,28.6,24.7h-15.2c-1.5-8.9-6.4-13.5-13.2-13.5s-14.2,6.9-14.2,20.3,5.5,20.5,14.2,20.5,12.2-5.2,13.5-14.9h14.9c-1.6,16.7-12.9,26.1-28.7,26.1s-29.9-11.8-29.9-31.5Z"/>
      <path class="cls-3" d="M1397.8,306.3c0-19.9,12.4-31.5,30-31.5s29.1,11.1,29.1,30.8v2.4h-43.2c.5,12.8,5.9,19.4,14.1,19.4s11.3-4,12.9-12h15.3c-2.8,14.2-13.5,22.6-28.5,22.6s-29.8-11.9-29.8-31.6ZM1414.1,300h27.2c-1.4-9.8-6.4-14.6-13.6-14.6s-12.1,4.9-13.5,14.6Z"/>
      <path class="cls-3" d="M1464.7,317h14.7c1.8,7.8,6.5,11.2,13.5,11.2s10.6-3.1,10.6-7.2c0-6.1-7.4-7.8-15.6-9.8-10.6-2.5-22.5-5.5-22.5-18.5s9.5-18,24.6-18,24.8,7.4,27.8,20h-14.6c-2-6.8-6.4-10.1-13.1-10.1s-9.4,2.7-9.4,6.6,7.2,7.1,15.3,9.1c10.6,2.5,22.8,5.8,22.8,19.1s-10.4,18.6-25.6,18.6-25.6-6.8-28.5-20.9Z"/>
    </g>
  </g>
</svg>